{"asset":{"version":"2.0","generator":"Blockbench 4.9.4 glTF exporter"},"scenes":[{"nodes":[15],"name":"blockbench_export"}],"scene":0,"nodes":[{"translation":[0.125,-0.6875,0],"name":"cube","mesh":0},{"translation":[0.125,-0.6875,0],"name":"cube","mesh":1},{"translation":[-0.125,0.6875,0],"name":"left_leg","children":[0,1]},{"translation":[-0.125,-0.6875,0],"name":"cube","mesh":2},{"translation":[-0.125,-0.6875,0],"name":"cube","mesh":3},{"translation":[0.125,0.6875,0],"name":"right_leg","children":[3,4]},{"translation":[0,-0.6875,0],"name":"cube","mesh":4},{"translation":[0.25,-1.375,0],"name":"cube","mesh":5},{"translation":[-0.25,0.6875,0],"name":"left_arm","children":[7]},{"translation":[-0.25,-1.375,0],"name":"cube","mesh":6},{"translation":[0.25,0.6875,0],"name":"right_arm","children":[9]},{"translation":[0,-1.4375,0],"name":"cube","mesh":7},{"translation":[0,0.75,0],"name":"head","children":[11]},{"translation":[0,0.6875,0],"name":"torso","children":[6,8,10,12]},{"name":"root","children":[2,5,13]},{"children":[14]}],"bufferViews":[{"buffer":0,"byteOffset":0,"byteLength":288,"target":34962,"byteStride":12},{"buffer":0,"byteOffset":288,"byteLength":288,"target":34962,"byteStride":12},{"buffer":0,"byteOffset":576,"byteLength":192,"target":34962,"byteStride":8},{"buffer":0,"byteOffset":768,"byteLength":72,"target":34963},{"buffer":0,"byteOffset":840,"byteLength":288,"target":34962,"byteStride":12},{"buffer":0,"byteOffset":1128,"byteLength":288,"target":34962,"byteStride":12},{"buffer":0,"byteOffset":1416,"byteLength":192,"target":34962,"byteStride":8},{"buffer":0,"byteOffset":1608,"byteLength":72,"target":34963},{"buffer":0,"byteOffset":1680,"byteLength":288,"target":34962,"byteStride":12},{"buffer":0,"byteOffset":1968,"byteLength":288,"target":34962,"byteStride":12},{"buffer":0,"byteOffset":2256,"byteLength":192,"target":34962,"byteStride":8},{"buffer":0,"byteOffset":2448,"byteLength":72,"target":34963},{"buffer":0,"byteOffset":2520,"byteLength":288,"target":34962,"byteStride":12},{"buffer":0,"byteOffset":2808,"byteLength":288,"target":34962,"byteStride":12},{"buffer":0,"byteOffset":3096,"byteLength":192,"target":34962,"byteStride":8},{"buffer":0,"byteOffset":3288,"byteLength":72,"target":34963},{"buffer":0,"byteOffset":3360,"byteLength":288,"target":34962,"byteStride":12},{"buffer":0,"byteOffset":3648,"byteLength":288,"target":34962,"byteStride":12},{"buffer":0,"byteOffset":3936,"byteLength":192,"target":34962,"byteStride":8},{"buffer":0,"byteOffset":4128,"byteLength":72,"target":34963},{"buffer":0,"byteOffset":4200,"byteLength":288,"target":34962,"byteStride":12},{"buffer":0,"byteOffset":4488,"byteLength":288,"target":34962,"byteStride":12},{"buffer":0,"byteOffset":4776,"byteLength":192,"target":34962,"byteStride":8},{"buffer":0,"byteOffset":4968,"byteLength":72,"target":34963},{"buffer":0,"byteOffset":5040,"byteLength":288,"target":34962,"byteStride":12},{"buffer":0,"byteOffset":5328,"byteLength":288,"target":34962,"byteStride":12},{"buffer":0,"byteOffset":5616,"byteLength":192,"target":34962,"byteStride":8},{"buffer":0,"byteOffset":5808,"byteLength":72,"target":34963},{"buffer":0,"byteOffset":5880,"byteLength":288,"target":34962,"byteStride":12},{"buffer":0,"byteOffset":6168,"byteLength":288,"target":34962,"byteStride":12},{"buffer":0,"byteOffset":6456,"byteLength":192,"target":34962,"byteStride":8},{"buffer":0,"byteOffset":6648,"byteLength":72,"target":34963},{"buffer":0,"byteOffset":6720,"byteLength":64},{"buffer":0,"byteOffset":6784,"byteLength":192},{"buffer":0,"byteOffset":6976,"byteLength":64},{"buffer":0,"byteOffset":7040,"byteLength":256},{"buffer":0,"byteOffset":7296,"byteLength":64},{"buffer":0,"byteOffset":7360,"byteLength":192},{"buffer":0,"byteOffset":7552,"byteLength":56},{"buffer":0,"byteOffset":7608,"byteLength":224},{"buffer":0,"byteOffset":7832,"byteLength":64},{"buffer":0,"byteOffset":7896,"byteLength":256},{"buffer":0,"byteOffset":8152,"byteLength":48},{"buffer":0,"byteOffset":8200,"byteLength":192},{"buffer":0,"byteOffset":8392,"byteLength":64},{"buffer":0,"byteOffset":8456,"byteLength":256},{"buffer":0,"byteOffset":8712,"byteLength":16},{"buffer":0,"byteOffset":8728,"byteLength":48},{"buffer":0,"byteOffset":8776,"byteLength":24},{"buffer":0,"byteOffset":8800,"byteLength":96},{"buffer":0,"byteOffset":8896,"byteLength":24},{"buffer":0,"byteOffset":8920,"byteLength":96},{"buffer":0,"byteOffset":9016,"byteLength":20},{"buffer":0,"byteOffset":9036,"byteLength":60},{"buffer":0,"byteOffset":9096,"byteLength":20},{"buffer":0,"byteOffset":9116,"byteLength":80},{"buffer":0,"byteOffset":9196,"byteLength":20},{"buffer":0,"byteOffset":9216,"byteLength":80},{"buffer":0,"byteOffset":9296,"byteLength":24},{"buffer":0,"byteOffset":9320,"byteLength":96},{"buffer":0,"byteOffset":9416,"byteLength":24},{"buffer":0,"byteOffset":9440,"byteLength":96},{"buffer":0,"byteOffset":9536,"byteLength":24},{"buffer":0,"byteOffset":9560,"byteLength":72},{"buffer":0,"byteOffset":9632,"byteLength":24},{"buffer":0,"byteOffset":9656,"byteLength":72},{"buffer":0,"byteOffset":9728,"byteLength":4},{"buffer":0,"byteOffset":9732,"byteLength":16},{"buffer":0,"byteOffset":9748,"byteLength":4},{"buffer":0,"byteOffset":9752,"byteLength":16},{"buffer":0,"byteOffset":9768,"byteLength":4},{"buffer":0,"byteOffset":9772,"byteLength":16},{"buffer":0,"byteOffset":9788,"byteLength":4},{"buffer":0,"byteOffset":9792,"byteLength":16},{"buffer":0,"byteOffset":9808,"byteLength":64},{"buffer":0,"byteOffset":9872,"byteLength":256},{"buffer":0,"byteOffset":10128,"byteLength":64},{"buffer":0,"byteOffset":10192,"byteLength":256},{"buffer":0,"byteOffset":10448,"byteLength":52},{"buffer":0,"byteOffset":10500,"byteLength":208},{"buffer":0,"byteOffset":10708,"byteLength":52},{"buffer":0,"byteOffset":10760,"byteLength":208},{"buffer":0,"byteOffset":10968,"byteLength":56},{"buffer":0,"byteOffset":11024,"byteLength":224},{"buffer":0,"byteOffset":11248,"byteLength":56},{"buffer":0,"byteOffset":11304,"byteLength":224},{"buffer":0,"byteOffset":11528,"byteLength":32},{"buffer":0,"byteOffset":11560,"byteLength":96},{"buffer":0,"byteOffset":11656,"byteLength":56},{"buffer":0,"byteOffset":11712,"byteLength":224}],"buffers":[{"byteLength":11936,"uri":"data:application/octet-stream;base64,"}],"accessors":[{"bufferView":0,"componentType":5126,"count":24,"max":[0,0.125,0.1875],"min":[-0.25,0,-0.1875],"type":"VEC3"},{"bufferView":1,"componentType":5126,"count":24,"max":[1,1,1],"min":[-1,-1,-1],"type":"VEC3"},{"bufferView":2,"componentType":5126,"count":24,"max":[0.65625,0.609375],"min":[0.21875,0],"type":"VEC2"},{"bufferView":3,"componentType":5123,"count":36,"max":[23],"min":[0],"type":"SCALAR"},{"bufferView":4,"componentType":5126,"count":24,"max":[-0.015625,0.6875,0.171875],"min":[-0.234375,0.125,-0.171875],"type":"VEC3"},{"bufferView":5,"componentType":5126,"count":24,"max":[1,1,1],"min":[-1,-1,-1],"type":"VEC3"},{"bufferView":6,"componentType":5126,"count":24,"max":[0.625,0.640625],"min":[0,0.09375],"type":"VEC2"},{"bufferView":7,"componentType":5123,"count":36,"max":[23],"min":[0],"type":"SCALAR"},{"bufferView":8,"componentType":5126,"count":24,"max":[0.25,0.125,0.1875],"min":[0,0,-0.1875],"type":"VEC3"},{"bufferView":9,"componentType":5126,"count":24,"max":[1,1,1],"min":[-1,-1,-1],"type":"VEC3"},{"bufferView":10,"componentType":5126,"count":24,"max":[0.65625,0.609375],"min":[0.21875,0],"type":"VEC2"},{"bufferView":11,"componentType":5123,"count":36,"max":[23],"min":[0],"type":"SCALAR"},{"bufferView":12,"componentType":5126,"count":24,"max":[0.234375,0.6875,0.171875],"min":[0.015625,0.125,-0.171875],"type":"VEC3"},{"bufferView":13,"componentType":5126,"count":24,"max":[1,1,1],"min":[-1,-1,-1],"type":"VEC3"},{"bufferView":14,"componentType":5126,"count":24,"max":[0.625,0.640625],"min":[0,0.09375],"type":"VEC2"},{"bufferView":15,"componentType":5123,"count":36,"max":[23],"min":[0],"type":"SCALAR"},{"bufferView":16,"componentType":5126,"count":24,"max":[0.25,1.4375,0.1875],"min":[-0.25,0.6875,-0.1875],"type":"VEC3"},{"bufferView":17,"componentType":5126,"count":24,"max":[1,1,1],"min":[-1,-1,-1],"type":"VEC3"},{"bufferView":18,"componentType":5126,"count":24,"max":[0.59375,0.453125],"min":[0,0],"type":"VEC2"},{"bufferView":19,"componentType":5123,"count":36,"max":[23],"min":[0],"type":"SCALAR"},{"bufferView":20,"componentType":5126,"count":24,"max":[-0.25,1.4375,0.15625],"min":[-0.53125,0.625,-0.15625],"type":"VEC3"},{"bufferView":21,"componentType":5126,"count":24,"max":[1,1,1],"min":[-1,-1,-1],"type":"VEC3"},{"bufferView":22,"componentType":5126,"count":24,"max":[0.421875,0.59375],"min":[0.0625,0],"type":"VEC2"},{"bufferView":23,"componentType":5123,"count":36,"max":[23],"min":[0],"type":"SCALAR"},{"bufferView":24,"componentType":5126,"count":24,"max":[0.53125,1.4375,0.15625],"min":[0.25,0.625,-0.15625],"type":"VEC3"},{"bufferView":25,"componentType":5126,"count":24,"max":[1,1,1],"min":[-1,-1,-1],"type":"VEC3"},{"bufferView":26,"componentType":5126,"count":24,"max":[0.421875,0.59375],"min":[0.0625,0],"type":"VEC2"},{"bufferView":27,"componentType":5123,"count":36,"max":[23],"min":[0],"type":"SCALAR"},{"bufferView":28,"componentType":5126,"count":24,"max":[0.25,1.9375,0.25],"min":[-0.25,1.4375,-0.25],"type":"VEC3"},{"bufferView":29,"componentType":5126,"count":24,"max":[1,1,1],"min":[-1,-1,-1],"type":"VEC3"},{"bufferView":30,"componentType":5126,"count":24,"max":[0.546875,0.578125],"min":[0,0],"type":"VEC2"},{"bufferView":31,"componentType":5123,"count":36,"max":[23],"min":[0],"type":"SCALAR"},{"bufferView":32,"componentType":5126,"count":16,"max":[1],"min":[0],"type":"SCALAR"},{"bufferView":33,"componentType":5126,"count":16,"max":[-0.25,0.71875,0],"min":[-0.25,0.6875,0],"type":"VEC3"},{"bufferView":34,"componentType":5126,"count":16,"max":[1],"min":[0],"type":"SCALAR"},{"bufferView":35,"componentType":5126,"count":16,"max":[0.02181488461792469,0,0,1],"min":[0,0,0,0.9997619986534119],"type":"VEC4"},{"bufferView":36,"componentType":5126,"count":16,"max":[1],"min":[0],"type":"SCALAR"},{"bufferView":37,"componentType":5126,"count":16,"max":[0.25,0.71875,0],"min":[0.25,0.6875,0],"type":"VEC3"},{"bufferView":38,"componentType":5126,"count":14,"max":[1.0416666269302368],"min":[0],"type":"SCALAR"},{"bufferView":39,"componentType":5126,"count":14,"max":[0.016159752383828163,0,0,1],"min":[-0.2164396196603775,0,0,0.9762960076332092],"type":"VEC4"},{"bufferView":40,"componentType":5126,"count":16,"max":[1],"min":[0],"type":"SCALAR"},{"bufferView":41,"componentType":5126,"count":16,"max":[0.13052618503570557,0,0,1],"min":[-0.13052618503570557,0,0,0.9914448857307434],"type":"VEC4"},{"bufferView":42,"componentType":5126,"count":12,"max":[1],"min":[0],"type":"SCALAR"},{"bufferView":43,"componentType":5126,"count":12,"max":[0.016159752383828163,0,0,1],"min":[-0.2164396196603775,0,0,0.9762960076332092],"type":"VEC4"},{"bufferView":44,"componentType":5126,"count":16,"max":[1],"min":[0],"type":"SCALAR"},{"bufferView":45,"componentType":5126,"count":16,"max":[0.13052618503570557,0,0,1],"min":[-0.13052618503570557,0,0,0.9914448857307434],"type":"VEC4"},{"bufferView":46,"componentType":5126,"count":4,"max":[0.125],"min":[0],"type":"SCALAR"},{"bufferView":47,"componentType":5126,"count":4,"max":[1,1.100000023841858,1],"min":[1,1,1],"type":"VEC3"},{"bufferView":48,"componentType":5126,"count":6,"max":[0.25],"min":[0],"type":"SCALAR"},{"bufferView":49,"componentType":5126,"count":6,"max":[0,0.026415949687361717,0,1],"min":[-0.14981229603290558,0,-0.17162717878818512,0.9733460545539856],"type":"VEC4"},{"bufferView":50,"componentType":5126,"count":6,"max":[0.25],"min":[0],"type":"SCALAR"},{"bufferView":51,"componentType":5126,"count":6,"max":[0,0,0.17162717878818512,1],"min":[-0.14981229603290558,-0.026415949687361717,0,0.9733460545539856],"type":"VEC4"},{"bufferView":52,"componentType":5126,"count":5,"max":[0.25],"min":[0],"type":"SCALAR"},{"bufferView":53,"componentType":5126,"count":5,"max":[1,1,1.100000023841858],"min":[1,0.8999999761581421,1],"type":"VEC3"},{"bufferView":54,"componentType":5126,"count":5,"max":[0.25],"min":[0],"type":"SCALAR"},{"bufferView":55,"componentType":5126,"count":5,"max":[0.15212339162826538,0,0,1],"min":[0,0,0,0.9883615374565125],"type":"VEC4"},{"bufferView":56,"componentType":5126,"count":5,"max":[0.25],"min":[0],"type":"SCALAR"},{"bufferView":57,"componentType":5126,"count":5,"max":[0,0,0,1],"min":[-0.15212339162826538,0,0,0.9883615374565125],"type":"VEC4"},{"bufferView":58,"componentType":5126,"count":6,"max":[0.25],"min":[0],"type":"SCALAR"},{"bufferView":59,"componentType":5126,"count":6,"max":[0,0.026415949687361717,0,1],"min":[-0.14981229603290558,0,-0.17162717878818512,0.9733460545539856],"type":"VEC4"},{"bufferView":60,"componentType":5126,"count":6,"max":[0.25],"min":[0],"type":"SCALAR"},{"bufferView":61,"componentType":5126,"count":6,"max":[0,0,0.17162717878818512,1],"min":[-0.14981229603290558,-0.026415949687361717,0,0.9733460545539856],"type":"VEC4"},{"bufferView":62,"componentType":5126,"count":6,"max":[0.25],"min":[0],"type":"SCALAR"},{"bufferView":63,"componentType":5126,"count":6,"max":[0,0.6875,0],"min":[0,0.640625,0],"type":"VEC3"},{"bufferView":64,"componentType":5126,"count":6,"max":[0.25],"min":[0],"type":"SCALAR"},{"bufferView":65,"componentType":5126,"count":6,"max":[1,1.100000023841858,1],"min":[1,0.9962962865829468,1],"type":"VEC3"},{"bufferView":66,"componentType":5126,"count":1,"max":[0],"min":[0],"type":"SCALAR"},{"bufferView":67,"componentType":5126,"count":1,"max":[1,0,0,6.123234262925839e-17],"min":[1,0,0,6.123234262925839e-17],"type":"VEC4"},{"bufferView":68,"componentType":5126,"count":1,"max":[0],"min":[0],"type":"SCALAR"},{"bufferView":69,"componentType":5126,"count":1,"max":[1,0,0,6.123234262925839e-17],"min":[1,0,0,6.123234262925839e-17],"type":"VEC4"},{"bufferView":70,"componentType":5126,"count":1,"max":[0],"min":[0],"type":"SCALAR"},{"bufferView":71,"componentType":5126,"count":1,"max":[1,0,0,6.123234262925839e-17],"min":[1,0,0,6.123234262925839e-17],"type":"VEC4"},{"bufferView":72,"componentType":5126,"count":1,"max":[0],"min":[0],"type":"SCALAR"},{"bufferView":73,"componentType":5126,"count":1,"max":[1,0,0,6.123234262925839e-17],"min":[1,0,0,6.123234262925839e-17],"type":"VEC4"},{"bufferView":74,"componentType":5126,"count":16,"max":[1],"min":[0],"type":"SCALAR"},{"bufferView":75,"componentType":5126,"count":16,"max":[0.10886687785387039,0,0,1],"min":[-0.10886687785387039,0,0,0.9940563440322876],"type":"VEC4"},{"bufferView":76,"componentType":5126,"count":16,"max":[1],"min":[0],"type":"SCALAR"},{"bufferView":77,"componentType":5126,"count":16,"max":[0.10886687785387039,0,0,1],"min":[-0.1156306266784668,0,0,0.9932922720909119],"type":"VEC4"},{"bufferView":78,"componentType":5126,"count":13,"max":[0.75],"min":[0],"type":"SCALAR"},{"bufferView":79,"componentType":5126,"count":13,"max":[1,0,0,1],"min":[0,0,0,6.123234262925839e-17],"type":"VEC4"},{"bufferView":80,"componentType":5126,"count":13,"max":[0.75],"min":[0],"type":"SCALAR"},{"bufferView":81,"componentType":5126,"count":13,"max":[1,0,0,1],"min":[0,0,0,6.123234262925839e-17],"type":"VEC4"},{"bufferView":82,"componentType":5126,"count":14,"max":[0.75],"min":[0],"type":"SCALAR"},{"bufferView":83,"componentType":5126,"count":14,"max":[0.7071067690849304,0,0,1],"min":[0,0,0,0.7071067690849304],"type":"VEC4"},{"bufferView":84,"componentType":5126,"count":14,"max":[0.75],"min":[0],"type":"SCALAR"},{"bufferView":85,"componentType":5126,"count":14,"max":[0.7071067690849304,0,0,1],"min":[-0.02181488461792469,0,0,0.7071067690849304],"type":"VEC4"},{"bufferView":86,"componentType":5126,"count":8,"max":[0.7083333134651184],"min":[0],"type":"SCALAR"},{"bufferView":87,"componentType":5126,"count":8,"max":[0,0,0],"min":[0,-2.125,0],"type":"VEC3"},{"bufferView":88,"componentType":5126,"count":14,"max":[0.75],"min":[0],"type":"SCALAR"},{"bufferView":89,"componentType":5126,"count":14,"max":[0,0,0,1],"min":[-1,0,0,-1],"type":"VEC4"}],"materials":[{"pbrMetallicRoughness":{"metallicFactor":0,"roughnessFactor":1,"baseColorTexture":{"index":0}},"alphaMode":"MASK","alphaCutoff":0.05,"doubleSided":true}],"textures":[{"sampler":0,"source":0}],"samplers":[{"magFilter":9728,"minFilter":9728,"wrapS":33071,"wrapT":33071}],"images":[{"mimeType":"image/png","uri":"data:image/png;base64,"}],"meshes":[{"primitives":[{"mode":4,"attributes":{"POSITION":0,"NORMAL":1,"TEXCOORD_0":2},"indices":3,"material":0}]},{"primitives":[{"mode":4,"attributes":{"POSITION":4,"NORMAL":5,"TEXCOORD_0":6},"indices":7,"material":0}]},{"primitives":[{"mode":4,"attributes":{"POSITION":8,"NORMAL":9,"TEXCOORD_0":10},"indices":11,"material":0}]},{"primitives":[{"mode":4,"attributes":{"POSITION":12,"NORMAL":13,"TEXCOORD_0":14},"indices":15,"material":0}]},{"primitives":[{"mode":4,"attributes":{"POSITION":16,"NORMAL":17,"TEXCOORD_0":18},"indices":19,"material":0}]},{"primitives":[{"mode":4,"attributes":{"POSITION":20,"NORMAL":21,"TEXCOORD_0":22},"indices":23,"material":0}]},{"primitives":[{"mode":4,"attributes":{"POSITION":24,"NORMAL":25,"TEXCOORD_0":26},"indices":27,"material":0}]},{"primitives":[{"mode":4,"attributes":{"POSITION":28,"NORMAL":29,"TEXCOORD_0":30},"indices":31,"material":0}]}],"animations":[{"name":"idle","samplers":[{"input":32,"output":33,"interpolation":"LINEAR"},{"input":34,"output":35,"interpolation":"LINEAR"},{"input":36,"output":37,"interpolation":"LINEAR"}],"channels":[{"sampler":0,"target":{"node":8,"path":"translation"}},{"sampler":1,"target":{"node":12,"path":"rotation"}},{"sampler":2,"target":{"node":10,"path":"translation"}}]},{"name":"walk","samplers":[{"input":38,"output":39,"interpolation":"LINEAR"},{"input":40,"output":41,"interpolation":"LINEAR"},{"input":42,"output":43,"interpolation":"LINEAR"},{"input":44,"output":45,"interpolation":"LINEAR"}],"channels":[{"sampler":0,"target":{"node":2,"path":"rotation"}},{"sampler":1,"target":{"node":8,"path":"rotation"}},{"sampler":2,"target":{"node":5,"path":"rotation"}},{"sampler":3,"target":{"node":10,"path":"rotation"}}]},{"name":"fall","samplers":[{"input":46,"output":47,"interpolation":"LINEAR"},{"input":48,"output":49,"interpolation":"LINEAR"},{"input":50,"output":51,"interpolation":"LINEAR"}],"channels":[{"sampler":0,"target":{"node":13,"path":"scale"}},{"sampler":1,"target":{"node":8,"path":"rotation"}},{"sampler":2,"target":{"node":10,"path":"rotation"}}]},{"name":"jump","samplers":[{"input":52,"output":53,"interpolation":"LINEAR"},{"input":54,"output":55,"interpolation":"LINEAR"},{"input":56,"output":57,"interpolation":"LINEAR"}],"channels":[{"sampler":0,"target":{"node":14,"path":"scale"}},{"sampler":1,"target":{"node":2,"path":"rotation"}},{"sampler":2,"target":{"node":5,"path":"rotation"}}]},{"name":"land","samplers":[{"input":58,"output":59,"interpolation":"LINEAR"},{"input":60,"output":61,"interpolation":"LINEAR"},{"input":62,"output":63,"interpolation":"LINEAR"},{"input":64,"output":65,"interpolation":"LINEAR"}],"channels":[{"sampler":0,"target":{"node":8,"path":"rotation"}},{"sampler":1,"target":{"node":10,"path":"rotation"}},{"sampler":2,"target":{"node":13,"path":"translation"}},{"sampler":3,"target":{"node":13,"path":"scale"}}]},{"name":"grab_ledge","samplers":[{"input":66,"output":67,"interpolation":"LINEAR"},{"input":68,"output":69,"interpolation":"LINEAR"}],"channels":[{"sampler":0,"target":{"node":8,"path":"rotation"}},{"sampler":1,"target":{"node":10,"path":"rotation"}}]},{"name":"ledge_loop","samplers":[{"input":70,"output":71,"interpolation":"LINEAR"},{"input":72,"output":73,"interpolation":"LINEAR"},{"input":74,"output":75,"interpolation":"LINEAR"},{"input":76,"output":77,"interpolation":"LINEAR"}],"channels":[{"sampler":0,"target":{"node":8,"path":"rotation"}},{"sampler":1,"target":{"node":10,"path":"rotation"}},{"sampler":2,"target":{"node":2,"path":"rotation"}},{"sampler":3,"target":{"node":5,"path":"rotation"}}]},{"name":"climb_ledge","samplers":[{"input":78,"output":79,"interpolation":"LINEAR"},{"input":80,"output":81,"interpolation":"LINEAR"},{"input":82,"output":83,"interpolation":"LINEAR"},{"input":84,"output":85,"interpolation":"LINEAR"},{"input":86,"output":87,"interpolation":"LINEAR"}],"channels":[{"sampler":0,"target":{"node":8,"path":"rotation"}},{"sampler":1,"target":{"node":10,"path":"rotation"}},{"sampler":2,"target":{"node":2,"path":"rotation"}},{"sampler":3,"target":{"node":5,"path":"rotation"}},{"sampler":4,"target":{"node":14,"path":"translation"}}]},{"name":"roll","samplers":[{"input":88,"output":89,"interpolation":"LINEAR"}],"channels":[{"sampler":0,"target":{"node":14,"path":"rotation"}}]}]}